<?xml version="1.0" encoding="UTF-8"?>
<!DOCTYPE svg PUBLIC "-//W3C//DTD SVG 1.1//EN" "http://www.w3.org/Graphics/SVG/1.1/DTD/svg11.dtd">
<svg xmlns="http://www.w3.org/2000/svg" version="1.1" width="500px" height="500px" style="shape-rendering:geometricPrecision; text-rendering:geometricPrecision; image-rendering:optimizeQuality; fill-rule:evenodd; clip-rule:evenodd" xmlns:xlink="http://www.w3.org/1999/xlink">
<g><path style="opacity:0.993" fill="#e1e1e1" d="M 188.5,197.5 C 187.509,169.907 187.176,142.241 187.5,114.5C 207.822,113.167 228.489,112.5 249.5,112.5C 270.167,112.833 290.833,113.167 311.5,113.5C 312.658,141.124 312.824,168.791 312,196.5C 311.5,197 311,197.5 310.5,198C 295.173,199.598 279.839,199.931 264.5,199C 263.446,200.388 263.28,201.888 264,203.5C 265.848,206.011 267.681,208.511 269.5,211C 269.095,211.945 268.428,212.612 267.5,213C 255.833,213.667 244.167,213.667 232.5,213C 231.572,212.612 230.905,211.945 230.5,211C 232.877,208.282 234.877,205.282 236.5,202C 236.018,200.992 235.852,199.825 236,198.5C 221.379,198.302 206.713,198.636 192,199.5C 190.698,198.915 189.531,198.249 188.5,197.5 Z M 196.5,117.5 C 232.167,117.5 267.833,117.5 303.5,117.5C 304.209,118.404 305.209,118.737 306.5,118.5C 306.5,138.5 306.5,158.5 306.5,178.5C 305.596,179.209 305.263,180.209 305.5,181.5C 268.167,181.5 230.833,181.5 193.5,181.5C 193.737,180.209 193.404,179.209 192.5,178.5C 192.5,159.5 192.5,140.5 192.5,121.5C 193.404,120.791 193.737,119.791 193.5,118.5C 194.791,118.737 195.791,118.404 196.5,117.5 Z M 248.5,190.5 C 251.861,191.203 252.194,192.537 249.5,194.5C 247.358,193.563 247.024,192.23 248.5,190.5 Z"/></g>
<g><path style="opacity:0.488" fill="#85878c" d="M 187.5,114.5 C 187.176,142.241 187.509,169.907 188.5,197.5C 187.167,184.017 186.501,170.183 186.5,156C 186.5,141.996 186.833,128.163 187.5,114.5 Z"/></g>
<g><path style="opacity:0.024" fill="#242a33" d="M 196.5,117.5 C 195.791,118.404 194.791,118.737 193.5,118.5C 193.737,119.791 193.404,120.791 192.5,121.5C 192.5,120.167 192.5,118.833 192.5,117.5C 193.833,117.5 195.167,117.5 196.5,117.5 Z"/></g>
<g><path style="opacity:0.707" fill="#b6b7ba" d="M 303.5,117.5 C 304.833,117.5 306.167,117.5 307.5,117.5C 307.831,139.007 307.497,160.34 306.5,181.5C 306.5,180.5 306.5,179.5 306.5,178.5C 306.5,158.5 306.5,138.5 306.5,118.5C 305.209,118.737 304.209,118.404 303.5,117.5 Z"/></g>
<g><path style="opacity:0.987" fill="#bfc0c2" d="M 243.5,164.5 C 243.629,162.784 243.962,161.117 244.5,159.5C 246.355,151.764 248.522,144.098 251,136.5C 252.335,134.395 254.002,133.729 256,134.5C 253.628,144.465 251.128,154.465 248.5,164.5C 246.833,164.5 245.167,164.5 243.5,164.5 Z"/></g>
<g><path style="opacity:0.015" fill="#353a43" d="M 238.5,141.5 C 239.209,140.596 240.209,140.263 241.5,140.5C 241.768,142.099 241.434,143.432 240.5,144.5C 240.715,142.821 240.048,141.821 238.5,141.5 Z"/></g>
<g><path style="opacity:0.029" fill="#242a33" d="M 258.5,141.5 C 258.5,142.833 258.5,144.167 258.5,145.5C 255.833,144.167 255.833,142.833 258.5,141.5 Z"/></g>
<g><path style="opacity:0.992" fill="#bebfc2" d="M 268.5,153.5 C 274.938,152.571 274.938,151.238 268.5,149.5C 264.937,148.718 261.603,147.384 258.5,145.5C 258.5,144.167 258.5,142.833 258.5,141.5C 264.841,143.022 271.175,145.522 277.5,149C 279.133,152.417 278.133,154.75 274.5,156C 270.047,157.726 265.714,159.726 261.5,162C 257.176,162.045 256.51,160.379 259.5,157C 262.484,155.729 265.484,154.562 268.5,153.5 Z"/></g>
<g><path style="opacity:0.992" fill="#c0c1c4" d="M 238.5,141.5 C 240.048,141.821 240.715,142.821 240.5,144.5C 237.308,147.242 233.642,149.242 229.5,150.5C 225.829,151.605 226.162,152.605 230.5,153.5C 234.299,154.421 237.632,156.088 240.5,158.5C 240.5,159.833 240.5,161.167 240.5,162.5C 232.91,160.038 225.91,156.538 219.5,152C 220.167,151 220.833,150 221.5,149C 226.983,146.009 232.65,143.509 238.5,141.5 Z"/></g>
<g><path style="opacity:0.031" fill="#383c45" d="M 229.5,150.5 C 229.557,151.609 229.89,152.609 230.5,153.5C 226.162,152.605 225.829,151.605 229.5,150.5 Z"/></g>
<g><path style="opacity:0.033" fill="#41454e" d="M 268.5,149.5 C 274.938,151.238 274.938,152.571 268.5,153.5C 269.833,152.167 269.833,150.833 268.5,149.5 Z"/></g>
<g><path style="opacity:0.032" fill="#282d37" d="M 240.5,158.5 C 241.705,160.138 243.038,160.471 244.5,159.5C 243.962,161.117 243.629,162.784 243.5,164.5C 242.772,162.709 241.772,162.042 240.5,162.5C 240.5,161.167 240.5,159.833 240.5,158.5 Z"/></g>
<g><path style="opacity:0.462" fill="#82848a" d="M 192.5,178.5 C 193.404,179.209 193.737,180.209 193.5,181.5C 230.833,181.5 268.167,181.5 305.5,181.5C 305.263,180.209 305.596,179.209 306.5,178.5C 306.5,179.5 306.5,180.5 306.5,181.5C 268.67,182.499 230.67,182.832 192.5,182.5C 192.5,181.167 192.5,179.833 192.5,178.5 Z"/></g>
<g><path style="opacity:0.994" fill="#bc9028" d="M 257.5,242.5 C 257.973,243.906 258.973,244.573 260.5,244.5C 263.879,249.423 264.379,254.756 262,260.5C 261.623,261.942 260.79,262.942 259.5,263.5C 257.821,263.715 256.821,263.048 256.5,261.5C 257.917,257.998 258.584,254.331 258.5,250.5C 258.741,247.966 257.741,246.3 255.5,245.5C 254.469,244.645 253.303,243.978 252,243.5C 248.945,244.611 246.112,246.111 243.5,248C 239.635,252.694 235.635,257.194 231.5,261.5C 229.273,262.401 228.273,264.067 228.5,266.5C 227.201,268.412 226.201,270.412 225.5,272.5C 223.821,272.285 222.821,272.952 222.5,274.5C 222.88,276.698 222.213,278.365 220.5,279.5C 218.744,280.552 218.077,282.219 218.5,284.5C 215.074,288.685 212.741,293.352 211.5,298.5C 210.215,301.589 209.549,304.922 209.5,308.5C 209.679,315.097 213.012,317.597 219.5,316C 222.878,312.985 226.544,310.485 230.5,308.5C 232.035,307.646 233.368,307.646 234.5,308.5C 232.934,308.976 232.6,309.643 233.5,310.5C 234.739,310.058 235.739,309.391 236.5,308.5C 237.167,308.5 237.5,308.167 237.5,307.5C 237.833,307.5 238.167,307.5 238.5,307.5C 241.239,304.977 240.906,304.31 237.5,305.5C 238.754,302.907 240.42,300.573 242.5,298.5C 243.167,297.167 244.167,296.167 245.5,295.5C 248.5,294.5 250.5,292.5 251.5,289.5C 252.11,287.566 253.11,285.899 254.5,284.5C 255.906,284.027 256.573,283.027 256.5,281.5C 257.122,277.28 258.789,276.614 261.5,279.5C 262.219,281.764 262.552,284.097 262.5,286.5C 262.5,287.167 262.5,287.833 262.5,288.5C 260.882,291.171 260.215,294.171 260.5,297.5C 259.887,306.642 258.554,315.642 256.5,324.5C 256.151,331.726 255.151,338.726 253.5,345.5C 252.21,344.942 251.377,343.942 251,342.5C 249.321,334.516 249.154,326.516 250.5,318.5C 251.449,314.343 252.116,310.01 252.5,305.5C 255.724,301.561 255.057,298.561 250.5,296.5C 249.708,297.7 249.708,299.033 250.5,300.5C 242.349,309.914 232.682,317.414 221.5,323C 213.527,326.333 207.86,324.167 204.5,316.5C 204.768,314.901 204.434,313.568 203.5,312.5C 202.283,306.773 202.616,301.106 204.5,295.5C 206.213,294.365 206.88,292.698 206.5,290.5C 206.229,288.62 206.896,287.287 208.5,286.5C 209.906,286.027 210.573,285.027 210.5,283.5C 210.53,280.148 211.863,277.482 214.5,275.5C 215.906,275.027 216.573,274.027 216.5,272.5C 217.906,272.027 218.573,271.027 218.5,269.5C 219.192,265.116 221.192,261.45 224.5,258.5C 225.906,258.027 226.573,257.027 226.5,255.5C 226.833,254.5 227.5,253.833 228.5,253.5C 230.262,252.738 231.262,251.404 231.5,249.5C 231.328,248.508 231.662,247.842 232.5,247.5C 234.833,247.167 236.167,245.833 236.5,243.5C 238.749,242.92 240.415,241.587 241.5,239.5C 247.661,235.063 252.994,236.063 257.5,242.5 Z"/></g>
<g><path style="opacity:0.196" fill="#4b4330" d="M 112.5,241.5 C 111.391,241.557 110.391,241.89 109.5,242.5C 110.053,240.448 111.053,240.115 112.5,241.5 Z"/></g>
<g><path style="opacity:0.985" fill="#b68c29" d="M 112.5,241.5 C 120.412,241.679 128.412,241.846 136.5,242C 139.379,242.546 142.046,243.379 144.5,244.5C 144.672,245.492 144.338,246.158 143.5,246.5C 137.791,246.371 132.291,246.038 127,245.5C 123.141,245.951 119.474,246.951 116,248.5C 113.611,259.544 110.944,270.544 108,281.5C 104.958,286.213 103.125,291.213 102.5,296.5C 101.883,296.611 101.383,296.944 101,297.5C 100.505,299.473 100.338,301.473 100.5,303.5C 99.407,309.039 98.0736,314.539 96.5,320C 96.8333,320.5 97.1667,321 97.5,321.5C 98.7362,320.754 100.07,320.421 101.5,320.5C 102.791,320.263 103.791,320.596 104.5,321.5C 95.648,326.95 85.9814,330.117 75.5,331C 74.8333,330.333 74.1667,329.667 73.5,329C 75.6446,327.711 77.9779,326.878 80.5,326.5C 83.1522,326.59 85.4855,325.924 87.5,324.5C 90.557,322.369 91.2237,319.536 89.5,316C 90.2202,313.509 90.8869,311.009 91.5,308.5C 92.2216,308.918 92.7216,309.584 93,310.5C 94.8195,307.233 94.9862,303.9 93.5,300.5C 94.2216,300.918 94.7216,301.584 95,302.5C 96.6965,298.386 97.1965,294.219 96.5,290C 99.2665,286.022 101.266,281.022 102.5,275C 102.056,273.238 101.556,273.405 101,275.5C 100.517,274.552 100.351,273.552 100.5,272.5C 100.5,272.167 100.5,271.833 100.5,271.5C 102.806,267.915 104.139,263.915 104.5,259.5C 106.277,256.495 107.277,253.162 107.5,249.5C 107.167,248.167 106.833,248.167 106.5,249.5C 97.5493,250.871 88.8826,253.371 80.5,257C 78.6131,257.78 76.9464,257.613 75.5,256.5C 75.5569,255.391 75.8902,254.391 76.5,253.5C 78.698,253.88 80.3646,253.213 81.5,251.5C 83.4214,250.637 85.4214,249.971 87.5,249.5C 91.1621,249.277 94.4954,248.277 97.5,246.5C 100.942,245.252 104.608,244.419 108.5,244C 109.056,243.617 109.389,243.117 109.5,242.5C 110.391,241.89 111.391,241.557 112.5,241.5 Z"/></g>
<g><path style="opacity:0.655" fill="#715c30" d="M 241.5,239.5 C 240.415,241.587 238.749,242.92 236.5,243.5C 237.585,241.413 239.251,240.08 241.5,239.5 Z"/></g>
<g><path style="opacity:0.012" fill="#443d32" d="M 257.5,242.5 C 259.027,242.427 260.027,243.094 260.5,244.5C 258.973,244.573 257.973,243.906 257.5,242.5 Z"/></g>
<g><path style="opacity:0.455" fill="#645330" d="M 236.5,243.5 C 236.167,245.833 234.833,247.167 232.5,247.5C 233.5,245.833 234.833,244.5 236.5,243.5 Z"/></g>
<g><path style="opacity:0.82" fill="#6a5732" d="M 255.5,245.5 C 257.741,246.3 258.741,247.966 258.5,250.5C 257.263,249.035 256.263,247.368 255.5,245.5 Z"/></g>
<g><path style="opacity:0.718" fill="#7b632e" d="M 97.5,246.5 C 94.4954,248.277 91.1621,249.277 87.5,249.5C 90.5046,247.723 93.8379,246.723 97.5,246.5 Z"/></g>
<g><path style="opacity:0.729" fill="#665431" d="M 144.5,244.5 C 146.898,245.882 147.065,247.549 145,249.5C 142.842,248.95 142.342,247.95 143.5,246.5C 144.338,246.158 144.672,245.492 144.5,244.5 Z"/></g>
<g><path style="opacity:0.714" fill="#665530" d="M 231.5,249.5 C 231.262,251.404 230.262,252.738 228.5,253.5C 228.738,251.596 229.738,250.262 231.5,249.5 Z"/></g>
<g><path style="opacity:0.682" fill="#6b582f" d="M 406.5,252.5 C 404.833,252.5 403.167,252.5 401.5,252.5C 403.167,249.833 404.833,249.833 406.5,252.5 Z"/></g>
<g><path style="opacity:0.78" fill="#705b30" d="M 81.5,251.5 C 80.3646,253.213 78.698,253.88 76.5,253.5C 77.9303,252.463 79.597,251.796 81.5,251.5 Z"/></g>
<g><path style="opacity:0.918" fill="#77612f" d="M 106.5,249.5 C 106.833,249.5 107.167,249.5 107.5,249.5C 107.277,253.162 106.277,256.495 104.5,259.5C 104.959,256.123 105.626,252.789 106.5,249.5 Z"/></g>
<g><path style="opacity:0.996" fill="#b98e28" d="M 401.5,252.5 C 403.167,252.5 404.833,252.5 406.5,252.5C 408.238,254.119 408.738,256.119 408,258.5C 405.188,263.808 402.688,269.141 400.5,274.5C 398.837,276.438 398.171,278.772 398.5,281.5C 396.035,288.368 394.535,295.368 394,302.5C 395.049,300.382 396.549,298.716 398.5,297.5C 400.664,297.279 402.33,296.279 403.5,294.5C 403.557,295.609 403.89,296.609 404.5,297.5C 404.25,299.674 403.25,301.341 401.5,302.5C 400.094,302.973 399.427,303.973 399.5,305.5C 399.5,306.167 399.167,306.5 398.5,306.5C 396.896,307.287 396.229,308.62 396.5,310.5C 395.833,311.833 394.833,312.833 393.5,313.5C 391.833,313.5 390.167,313.5 388.5,313.5C 386.973,313.573 385.973,312.906 385.5,311.5C 385.756,307.35 385.756,303.35 385.5,299.5C 389.173,283.485 394.506,267.819 401.5,252.5 Z"/></g>
<g><path style="opacity:0.612" fill="#645331" d="M 383.5,253.5 C 384.906,253.973 385.573,254.973 385.5,256.5C 384.094,256.027 383.427,255.027 383.5,253.5 Z"/></g>
<g><path style="opacity:0.169" fill="#494230" d="M 76.5,253.5 C 75.8902,254.391 75.5569,255.391 75.5,256.5C 74.1148,255.053 74.4482,254.053 76.5,253.5 Z"/></g>
<g><path style="opacity:0.271" fill="#594c31" d="M 226.5,255.5 C 226.573,257.027 225.906,258.027 224.5,258.5C 224.427,256.973 225.094,255.973 226.5,255.5 Z"/></g>
<g><path style="opacity:0.922" fill="#6c5931" d="M 104.5,259.5 C 104.139,263.915 102.806,267.915 100.5,271.5C 101.235,267.195 102.568,263.195 104.5,259.5 Z"/></g>
<g><path style="opacity:0.004" fill="#4b4231" d="M 231.5,261.5 C 230.89,263.434 229.89,265.101 228.5,266.5C 228.273,264.067 229.273,262.401 231.5,261.5 Z"/></g>
<g><path style="opacity:0.831" fill="#725d30" d="M 256.5,261.5 C 256.821,263.048 257.821,263.715 259.5,263.5C 258.998,265.085 257.998,265.585 256.5,265C 255.209,263.708 255.209,262.542 256.5,261.5 Z"/></g>
<g><path style="opacity:0.706" fill="#685630" d="M 375.5,264.5 C 375.88,266.698 375.213,268.365 373.5,269.5C 373.796,267.597 374.463,265.93 375.5,264.5 Z"/></g>
<g><path style="opacity:0.337" fill="#615230" d="M 218.5,269.5 C 218.573,271.027 217.906,272.027 216.5,272.5C 216.427,270.973 217.094,269.973 218.5,269.5 Z"/></g>
<g><path style="opacity:0.157" fill="#403c32" d="M 225.5,272.5 C 224.71,273.401 223.71,274.068 222.5,274.5C 222.821,272.952 223.821,272.285 225.5,272.5 Z"/></g>
<g><path style="opacity:0.997" fill="#ba8f28" d="M 383.5,253.5 C 383.427,255.027 384.094,256.027 385.5,256.5C 386.598,257.601 386.765,258.934 386,260.5C 384.725,264.042 383.225,267.375 381.5,270.5C 380.115,271.947 380.448,272.947 382.5,273.5C 382.938,273.435 383.272,273.601 383.5,274C 381.91,275.046 380.41,276.213 379,277.5C 376.313,285.39 374.146,293.39 372.5,301.5C 371.383,305.295 370.717,309.295 370.5,313.5C 370.5,313.833 370.5,314.167 370.5,314.5C 371.26,316.985 372.26,316.985 373.5,314.5C 373.5,313.833 373.833,313.5 374.5,313.5C 376.587,312.415 377.92,310.749 378.5,308.5C 380.587,307.415 381.92,305.749 382.5,303.5C 382.5,302.833 382.833,302.5 383.5,302.5C 384.573,304.347 384.573,306.347 383.5,308.5C 382.094,308.973 381.427,309.973 381.5,311.5C 379.581,316.166 376.581,320 372.5,323C 369.788,323.738 367.455,323.071 365.5,321C 364.663,319.989 364.33,318.822 364.5,317.5C 364.5,312.833 364.5,308.167 364.5,303.5C 364.363,299.821 365.029,296.321 366.5,293C 366.167,292.667 365.833,292.333 365.5,292C 366.099,290.378 366.766,288.878 367.5,287.5C 368.924,285.485 369.59,283.152 369.5,280.5C 369.5,280.167 369.5,279.833 369.5,279.5C 370.043,279.44 370.376,279.107 370.5,278.5C 367.914,277.52 365.247,277.187 362.5,277.5C 362.5,280.833 362.5,284.167 362.5,287.5C 362.768,289.099 362.434,290.432 361.5,291.5C 359.733,293.792 358.733,296.458 358.5,299.5C 354.98,307.882 349.98,315.215 343.5,321.5C 342.094,321.973 341.427,322.973 341.5,324.5C 337.961,328.165 333.628,329.332 328.5,328C 327.619,327.292 326.953,326.458 326.5,325.5C 325.886,321.865 325.552,318.198 325.5,314.5C 324.808,311.861 325.141,309.194 326.5,306.5C 328.48,303.858 329.314,300.858 329,297.5C 328.283,298.044 327.783,298.711 327.5,299.5C 327.5,299.833 327.5,300.167 327.5,300.5C 326.662,300.842 326.328,301.508 326.5,302.5C 324.098,304.909 321.431,306.909 318.5,308.5C 316.435,308.483 314.435,308.15 312.5,307.5C 311.662,307.158 311.328,306.492 311.5,305.5C 311.5,303.833 311.5,302.167 311.5,300.5C 311.366,298.708 311.699,297.042 312.5,295.5C 314.277,292.495 315.277,289.162 315.5,285.5C 317.213,284.365 317.88,282.698 317.5,280.5C 317.524,275.109 319.857,273.442 324.5,275.5C 324.5,276.833 324.5,278.167 324.5,279.5C 322.87,286.051 320.87,292.385 318.5,298.5C 316.762,300.119 316.262,302.119 317,304.5C 317.717,303.956 318.217,303.289 318.5,302.5C 318.5,302.167 318.5,301.833 318.5,301.5C 319.167,301.167 319.833,300.833 320.5,300.5C 322.587,299.415 323.92,297.749 324.5,295.5C 324.738,293.596 325.738,292.262 327.5,291.5C 328.906,291.027 329.573,290.027 329.5,288.5C 329.932,287.29 330.599,286.29 331.5,285.5C 333.759,284.656 334.759,282.989 334.5,280.5C 336.818,276.276 339.818,275.609 343.5,278.5C 336.854,292.084 332.854,306.417 331.5,321.5C 331.5,322.5 331.5,323.5 331.5,324.5C 333.099,324.768 334.432,324.434 335.5,323.5C 336.5,321.833 337.833,320.5 339.5,319.5C 340.906,319.027 341.573,318.027 341.5,316.5C 341.738,314.596 342.738,313.262 344.5,312.5C 345.906,312.027 346.573,311.027 346.5,309.5C 346.328,308.508 346.662,307.842 347.5,307.5C 348.906,307.027 349.573,306.027 349.5,304.5C 351.99,298.339 354.657,292.339 357.5,286.5C 358.254,283.977 358.92,281.311 359.5,278.5C 358.313,275.235 356.313,274.235 353.5,275.5C 353.167,275.5 352.833,275.5 352.5,275.5C 351.957,275.44 351.624,275.107 351.5,274.5C 352.602,273.824 353.602,273.158 354.5,272.5C 356.288,271.378 358.288,271.211 360.5,272C 366.037,277.094 370.371,276.261 373.5,269.5C 375.213,268.365 375.88,266.698 375.5,264.5C 376.534,260.757 377.868,257.09 379.5,253.5C 380.808,252.374 382.142,252.374 383.5,253.5 Z"/></g>
<g><path style="opacity:0.082" fill="#413c31" d="M 381.5,270.5 C 381.557,271.609 381.89,272.609 382.5,273.5C 380.448,272.947 380.115,271.947 381.5,270.5 Z"/></g>
<g><path style="opacity:0.247" fill="#594c30" d="M 216.5,272.5 C 216.573,274.027 215.906,275.027 214.5,275.5C 214.427,273.973 215.094,272.973 216.5,272.5 Z"/></g>
<g><path style="opacity:0.455" fill="#745f2e" d="M 354.5,272.5 C 353.602,273.158 352.602,273.824 351.5,274.5C 351.624,275.107 351.957,275.44 352.5,275.5C 352.217,276.289 351.717,276.956 351,277.5C 348.208,274.043 349.375,272.376 354.5,272.5 Z"/></g>
<g><path style="opacity:0.263" fill="#62532f" d="M 175.5,283.5 C 175.5,281.5 175.5,279.5 175.5,277.5C 173.05,277.298 170.717,277.631 168.5,278.5C 168.75,277.078 169.583,276.078 171,275.5C 172.699,276.406 174.533,276.739 176.5,276.5C 176.802,279.059 176.468,281.393 175.5,283.5 Z"/></g>
<g><path style="opacity:0.996" fill="#b78c29" d="M 277.5,289.5 C 277.167,289.5 276.833,289.5 276.5,289.5C 275.225,291.608 274.725,293.942 275,296.5C 276.193,294.114 277.36,291.78 278.5,289.5C 279.906,289.027 280.573,288.027 280.5,286.5C 281.167,285.167 282.167,284.167 283.5,283.5C 286.022,283.122 288.355,282.289 290.5,281C 293.146,280.503 295.813,280.336 298.5,280.5C 301.696,282.897 305.362,284.064 309.5,284C 310.791,285.292 310.791,286.458 309.5,287.5C 308.5,287.833 307.833,288.5 307.5,289.5C 307.167,290.167 306.833,290.833 306.5,291.5C 306.427,293.027 307.094,294.027 308.5,294.5C 309.404,295.209 309.737,296.209 309.5,297.5C 309.5,298.833 309.5,300.167 309.5,301.5C 309.704,306.088 308.037,309.755 304.5,312.5C 303.167,313.167 302.167,314.167 301.5,315.5C 296.388,319.819 291.555,319.486 287,314.5C 286.506,312.866 286.34,311.199 286.5,309.5C 287.473,309.013 288.473,308.513 289.5,308C 288.027,307.29 287.36,306.124 287.5,304.5C 287.66,302.847 288.326,301.514 289.5,300.5C 290.906,300.027 291.573,299.027 291.5,297.5C 291.328,296.508 291.662,295.842 292.5,295.5C 293.488,294.205 294.488,292.872 295.5,291.5C 295.328,290.508 295.662,289.842 296.5,289.5C 298.519,288.462 298.853,287.128 297.5,285.5C 296.395,284.4 295.062,283.733 293.5,283.5C 291.255,285.417 290.922,287.75 292.5,290.5C 292.03,291.463 291.363,291.463 290.5,290.5C 289.5,289.167 288.5,287.833 287.5,286.5C 286.167,286.5 285.5,287.167 285.5,288.5C 280.446,298.003 275.78,307.669 271.5,317.5C 269.5,317.5 267.5,317.5 265.5,317.5C 264.903,317.265 264.57,316.765 264.5,316C 266.269,307.886 267.769,299.72 269,291.5C 269.278,290.584 269.778,289.918 270.5,289.5C 271.924,287.485 272.59,285.152 272.5,282.5C 272.826,279.689 273.659,277.022 275,274.5C 276.333,275.167 277.667,275.833 279,276.5C 278.796,280.51 278.296,284.843 277.5,289.5 Z M 293.5,283.5 C 295.062,283.733 296.395,284.4 297.5,285.5C 297.167,286.833 296.833,288.167 296.5,289.5C 295.662,289.842 295.328,290.508 295.5,291.5C 292.622,289.512 291.955,286.846 293.5,283.5 Z M 303.5,297.5 C 303.128,301.372 302.128,305.039 300.5,308.5C 298.833,309.5 297.5,310.833 296.5,312.5C 295.508,312.328 294.842,312.662 294.5,313.5C 292.952,313.179 292.285,312.179 292.5,310.5C 294.66,304.537 297.493,298.87 301,293.5C 301.934,294.858 302.768,296.192 303.5,297.5 Z"/></g>
<g><path style="opacity:0.612" fill="#615130" d="M 324.5,275.5 C 326.781,276.634 326.781,277.968 324.5,279.5C 324.5,278.167 324.5,276.833 324.5,275.5 Z"/></g>
<g><path style="opacity:0.998" fill="#be9127" d="M 142.5,281.5 C 141.802,289.099 139.969,296.432 137,303.5C 136.188,307.689 136.355,311.689 137.5,315.5C 139.404,315.262 140.738,314.262 141.5,312.5C 143.404,312.262 144.738,311.262 145.5,309.5C 145.5,309.167 145.5,308.833 145.5,308.5C 146.628,304.999 147.628,301.333 148.5,297.5C 147.009,295.459 147.342,293.959 149.5,293C 148.663,291.989 148.33,290.822 148.5,289.5C 148.4,286.892 149.067,284.558 150.5,282.5C 151.833,282.5 153.167,282.5 154.5,282.5C 155.338,282.842 155.672,283.508 155.5,284.5C 155.037,287.482 154.704,290.482 154.5,293.5C 154.833,296.167 155.167,296.167 155.5,293.5C 155.833,293.5 156.167,293.5 156.5,293.5C 158.587,292.415 159.92,290.749 160.5,288.5C 161.906,288.027 162.573,287.027 162.5,285.5C 162.833,284.5 163.5,283.833 164.5,283.5C 166.587,282.415 167.92,280.749 168.5,278.5C 170.717,277.631 173.05,277.298 175.5,277.5C 175.5,279.5 175.5,281.5 175.5,283.5C 174.182,291.287 172.349,298.954 170,306.5C 169.195,309.696 169.362,312.696 170.5,315.5C 172.404,315.262 173.738,314.262 174.5,312.5C 175.688,311.636 176.855,310.636 178,309.5C 178.119,305.995 179.286,302.995 181.5,300.5C 182.906,300.027 183.573,299.027 183.5,297.5C 183.328,296.508 183.662,295.842 184.5,295.5C 185.878,294.455 186.878,293.122 187.5,291.5C 187.328,290.508 187.662,289.842 188.5,289.5C 191.048,287.704 191.048,286.038 188.5,284.5C 187.779,282.618 186.779,282.285 185.5,283.5C 183.87,285.026 183.037,287.026 183,289.5C 182.617,288.944 182.117,288.611 181.5,288.5C 181.279,285.721 181.612,283.054 182.5,280.5C 186.937,278.728 190.937,279.561 194.5,283C 196.833,283.333 199.167,283.667 201.5,284C 202.791,285.292 202.791,286.458 201.5,287.5C 200.5,287.833 199.833,288.5 199.5,289.5C 199.167,290.167 198.833,290.833 198.5,291.5C 198.427,293.027 199.094,294.027 200.5,294.5C 202.708,299.11 202.541,303.777 200,308.5C 199.34,310.324 198.173,311.657 196.5,312.5C 195.167,313.167 194.167,314.167 193.5,315.5C 192.713,317.104 191.38,317.771 189.5,317.5C 186.763,317.599 184.096,317.265 181.5,316.5C 180.85,316.196 180.183,315.863 179.5,315.5C 174.185,321.578 168.685,321.911 163,316.5C 162.245,312.745 162.411,309.078 163.5,305.5C 165.549,305.294 165.883,304.461 164.5,303C 165.65,300.254 166.15,297.421 166,294.5C 165.221,297.097 164.721,297.097 164.5,294.5C 164.631,293.761 164.464,293.094 164,292.5C 163,293.5 162,294.5 161,295.5C 157.618,302.543 153.785,309.209 149.5,315.5C 147.585,315.216 145.919,315.549 144.5,316.5C 141.751,320.171 138.084,321.337 133.5,320C 132.944,319.617 132.611,319.117 132.5,318.5C 132.167,317.5 131.5,316.833 130.5,316.5C 131.105,312.685 131.105,309.018 130.5,305.5C 131.376,305.631 132.043,305.298 132.5,304.5C 132.08,302.674 132.08,300.674 132.5,298.5C 132.5,298.167 132.5,297.833 132.5,297.5C 134.24,294.097 135.073,290.43 135,286.5C 133.624,287.705 132.458,289.038 131.5,290.5C 131.5,290.833 131.5,291.167 131.5,291.5C 125.999,299.164 120.999,307.164 116.5,315.5C 114.435,315.483 112.435,315.15 110.5,314.5C 111.167,312.833 111.833,311.167 112.5,309.5C 112.5,308.833 112.5,308.167 112.5,307.5C 113.573,305.653 113.573,303.653 112.5,301.5C 113.65,302.85 114.317,302.684 114.5,301C 113.852,299.56 113.519,298.06 113.5,296.5C 113.232,294.901 113.566,293.568 114.5,292.5C 115.924,290.485 116.59,288.152 116.5,285.5C 118.358,280.369 120.692,280.203 123.5,285C 122.556,287.719 122.223,290.552 122.5,293.5C 121.662,293.842 121.328,294.508 121.5,295.5C 120.833,295.5 120.5,295.833 120.5,296.5C 119.697,297.423 119.53,298.423 120,299.5C 121.481,298.529 122.315,297.196 122.5,295.5C 123.906,295.027 124.573,294.027 124.5,292.5C 125.906,292.027 126.573,291.027 126.5,289.5C 128.587,288.415 129.92,286.749 130.5,284.5C 132.587,283.415 133.92,281.749 134.5,279.5C 136.82,277.774 139.487,277.107 142.5,277.5C 142.5,278.833 142.5,280.167 142.5,281.5 Z M 185.5,283.5 C 186.391,284.11 187.391,284.443 188.5,284.5C 189.562,286.099 189.562,287.766 188.5,289.5C 187.662,289.842 187.328,290.508 187.5,291.5C 184.622,289.512 183.955,286.846 185.5,283.5 Z M 192.5,293.5 C 194.241,295.013 195.241,297.013 195.5,299.5C 194.955,302.692 193.955,305.692 192.5,308.5C 190.833,309.5 189.5,310.833 188.5,312.5C 186.973,312.427 185.973,313.094 185.5,314.5C 184.773,312.677 184.439,310.843 184.5,309C 186.795,303.576 189.461,298.409 192.5,293.5 Z"/></g>
<g><path style="opacity:0.135" fill="#3e3b32" d="M 369.5,279.5 C 367.735,278.539 365.735,278.205 363.5,278.5C 363.81,281.713 363.477,284.713 362.5,287.5C 362.5,284.167 362.5,280.833 362.5,277.5C 365.247,277.187 367.914,277.52 370.5,278.5C 370.376,279.107 370.043,279.44 369.5,279.5 Z"/></g>
<g><path style="opacity:0.471" fill="#645330" d="M 400.5,274.5 C 400.279,277.067 399.612,279.401 398.5,281.5C 398.171,278.772 398.837,276.438 400.5,274.5 Z"/></g>
<g><path style="opacity:0.329" fill="#61522f" d="M 142.5,281.5 C 142.5,280.167 142.5,278.833 142.5,277.5C 139.487,277.107 136.82,277.774 134.5,279.5C 134.762,277.436 135.929,276.103 138,275.5C 139.333,276.833 140.667,276.833 142,275.5C 143.707,277.483 143.874,279.483 142.5,281.5 Z"/></g>
<g><path style="opacity:0.875" fill="#876c2d" d="M 353.5,275.5 C 356.313,274.235 358.313,275.235 359.5,278.5C 358.92,281.311 358.254,283.977 357.5,286.5C 357.577,282.785 357.244,279.119 356.5,275.5C 355.5,275.5 354.5,275.5 353.5,275.5 Z"/></g>
<g><path style="opacity:0.993" fill="#b58b29" d="M 409.5,327.5 C 409.784,325.585 409.451,323.919 408.5,322.5C 408.5,322.167 408.5,321.833 408.5,321.5C 409.148,319.914 409.648,318.247 410,316.5C 410.333,319.5 410.667,322.5 411,325.5C 412.816,321.635 412.983,317.635 411.5,313.5C 412.167,310.833 412.833,308.167 413.5,305.5C 412.242,306.016 411.242,305.35 410.5,303.5C 411.025,302.808 411.692,302.308 412.5,302C 411.663,300.989 411.33,299.822 411.5,298.5C 412.551,294.731 413.884,291.065 415.5,287.5C 417.011,286.042 418.011,284.209 418.5,282C 416.381,281.658 416.047,280.825 417.5,279.5C 420.562,278.573 423.228,279.406 425.5,282C 422.57,290.719 419.737,299.553 417,308.5C 416.179,315.867 415.179,323.2 414,330.5C 411.448,331.487 409.948,330.487 409.5,327.5 Z"/></g>
<g><path style="opacity:0.349" fill="#534830" d="M 220.5,279.5 C 219.976,281.306 219.309,282.972 218.5,284.5C 218.077,282.219 218.744,280.552 220.5,279.5 Z"/></g>
<g><path style="opacity:0.431" fill="#564a31" d="M 298.5,280.5 C 295.813,280.336 293.146,280.503 290.5,281C 288.355,282.289 286.022,283.122 283.5,283.5C 285.242,282.043 287.242,280.876 289.5,280C 292.696,279.195 295.696,279.362 298.5,280.5 Z"/></g>
<g><path style="opacity:0.388" fill="#4c4331" d="M 154.5,282.5 C 153.167,282.5 151.833,282.5 150.5,282.5C 151.634,280.219 152.968,280.219 154.5,282.5 Z"/></g>
<g><path style="opacity:0.506" fill="#685530" d="M 168.5,278.5 C 167.92,280.749 166.587,282.415 164.5,283.5C 165.08,281.251 166.413,279.585 168.5,278.5 Z"/></g>
<g><path style="opacity:0.38" fill="#5d4f30" d="M 261.5,279.5 C 262.993,280.312 263.66,281.645 263.5,283.5C 263.48,284.726 263.147,285.726 262.5,286.5C 262.552,284.097 262.219,281.764 261.5,279.5 Z"/></g>
<g><path style="opacity:0.651" fill="#725d2e" d="M 100.5,272.5 C 100.351,273.552 100.517,274.552 101,275.5C 101.556,273.405 102.056,273.238 102.5,275C 101.266,281.022 99.2665,286.022 96.5,290C 97.1965,294.219 96.6965,298.386 95,302.5C 94.7216,301.584 94.2216,300.918 93.5,300.5C 94.9213,290.815 97.2546,281.481 100.5,272.5 Z"/></g>
<g><path style="opacity:0.525" fill="#685630" d="M 134.5,279.5 C 133.92,281.749 132.587,283.415 130.5,284.5C 131.08,282.251 132.413,280.585 134.5,279.5 Z"/></g>
<g><path style="opacity:0.647" fill="#6c592f" d="M 182.5,280.5 C 181.612,283.054 181.279,285.721 181.5,288.5C 180.844,287.378 180.511,286.045 180.5,284.5C 180.585,282.667 181.252,281.334 182.5,280.5 Z"/></g>
<g><path style="opacity:0.047" fill="#2c2e33" d="M 185.5,283.5 C 186.779,282.285 187.779,282.618 188.5,284.5C 187.391,284.443 186.391,284.11 185.5,283.5 Z"/></g>
<g><path style="opacity:0.204" fill="#524731" d="M 256.5,281.5 C 256.573,283.027 255.906,284.027 254.5,284.5C 254.427,282.973 255.094,281.973 256.5,281.5 Z"/></g>
<g><path style="opacity:0.71" fill="#635231" d="M 317.5,280.5 C 317.88,282.698 317.213,284.365 315.5,285.5C 315.796,283.597 316.463,281.93 317.5,280.5 Z"/></g>
<g><path style="opacity:0.886" fill="#80662f" d="M 334.5,280.5 C 334.759,282.989 333.759,284.656 331.5,285.5C 332.11,283.566 333.11,281.899 334.5,280.5 Z"/></g>
<g><path style="opacity:0.412" fill="#665530" d="M 210.5,283.5 C 210.573,285.027 209.906,286.027 208.5,286.5C 208.427,284.973 209.094,283.973 210.5,283.5 Z"/></g>
<g><path style="opacity:0.824" fill="#75602f" d="M 272.5,282.5 C 272.59,285.152 271.924,287.485 270.5,289.5C 270.41,286.848 271.076,284.515 272.5,282.5 Z"/></g>
<g><path style="opacity:0.051" fill="#484032" d="M 188.5,284.5 C 191.048,286.038 191.048,287.704 188.5,289.5C 189.562,287.766 189.562,286.099 188.5,284.5 Z"/></g>
<g><path style="opacity:0.078" fill="#3d3933" d="M 287.5,286.5 C 287.167,287.5 286.5,288.167 285.5,288.5C 285.5,287.167 286.167,286.5 287.5,286.5 Z"/></g>
<g><path style="opacity:0.459" fill="#69572f" d="M 369.5,280.5 C 369.59,283.152 368.924,285.485 367.5,287.5C 367.41,284.848 368.076,282.515 369.5,280.5 Z"/></g>
<g><path style="opacity:0.075" fill="#2e3033" d="M 415.5,283.5 C 415.5,284.167 415.5,284.833 415.5,285.5C 411.874,287.459 408.874,290.126 406.5,293.5C 408.069,288.929 411.069,285.595 415.5,283.5 Z"/></g>
<g><path style="opacity:0.286" fill="#524731" d="M 162.5,285.5 C 162.573,287.027 161.906,288.027 160.5,288.5C 160.427,286.973 161.094,285.973 162.5,285.5 Z"/></g>
<g><path style="opacity:1" fill="#97772b" d="M 417.5,279.5 C 416.047,280.825 416.381,281.658 418.5,282C 418.011,284.209 417.011,286.042 415.5,287.5C 415.5,286.833 415.5,286.167 415.5,285.5C 416.833,284.833 416.833,284.167 415.5,283.5C 411.069,285.595 408.069,288.929 406.5,293.5C 406.771,295.38 406.104,296.713 404.5,297.5C 403.89,296.609 403.557,295.609 403.5,294.5C 405.138,293.295 405.471,291.962 404.5,290.5C 407.948,285.713 412.281,282.046 417.5,279.5 Z"/></g>
<g><path style="opacity:0.737" fill="#6a5830" d="M 116.5,285.5 C 116.59,288.152 115.924,290.485 114.5,292.5C 114.41,289.848 115.076,287.515 116.5,285.5 Z"/></g>
<g><path style="opacity:0.184" fill="#574a31" d="M 130.5,284.5 C 129.92,286.749 128.587,288.415 126.5,289.5C 127.08,287.251 128.413,285.585 130.5,284.5 Z"/></g>
<g><path style="opacity:0.004" fill="#494031" d="M 201.5,287.5 C 201.5,288.833 200.833,289.5 199.5,289.5C 199.833,288.5 200.5,287.833 201.5,287.5 Z"/></g>
<g><path style="opacity:0.337" fill="#5e4f30" d="M 280.5,286.5 C 280.573,288.027 279.906,289.027 278.5,289.5C 278.427,287.973 279.094,286.973 280.5,286.5 Z"/></g>
<g><path style="opacity:0.373" fill="#4f4531" d="M 297.5,285.5 C 298.853,287.128 298.519,288.462 296.5,289.5C 296.833,288.167 297.167,286.833 297.5,285.5 Z"/></g>
<g><path style="opacity:0.008" fill="#463f31" d="M 309.5,287.5 C 309.5,288.833 308.833,289.5 307.5,289.5C 307.833,288.5 308.5,287.833 309.5,287.5 Z"/></g>
<g><path style="opacity:0.831" fill="#5c4e32" d="M 315.5,285.5 C 315.277,289.162 314.277,292.495 312.5,295.5C 312.723,291.838 313.723,288.505 315.5,285.5 Z"/></g>
<g><path style="opacity:0.012" fill="#3f3b32" d="M 165.5,291.5 C 165.5,290.833 165.167,290.5 164.5,290.5C 167.226,285.771 168.393,285.771 168,290.5C 167.667,290.167 167.333,289.833 167,289.5C 166.722,290.416 166.222,291.082 165.5,291.5 Z"/></g>
<g><path style="opacity:0.569" fill="#67552f" d="M 329.5,288.5 C 329.573,290.027 328.906,291.027 327.5,291.5C 327.427,289.973 328.094,288.973 329.5,288.5 Z"/></g>
<g><path style="opacity:0.486" fill="#62532f" d="M 132.5,297.5 C 131.833,297.5 131.5,297.833 131.5,298.5C 130.583,296.338 130.583,294.005 131.5,291.5C 132.833,291.167 132.833,290.833 131.5,290.5C 132.458,289.038 133.624,287.705 135,286.5C 135.073,290.43 134.24,294.097 132.5,297.5 Z"/></g>
<g><path style="opacity:0.341" fill="#5a4d30" d="M 126.5,289.5 C 126.573,291.027 125.906,292.027 124.5,292.5C 124.427,290.973 125.094,289.973 126.5,289.5 Z"/></g>
<g><path style="opacity:0.012" fill="#383633" d="M 155.5,284.5 C 156.368,287.327 156.368,290.327 155.5,293.5C 155.167,293.5 154.833,293.5 154.5,293.5C 154.704,290.482 155.037,287.482 155.5,284.5 Z"/></g>
<g><path style="opacity:0.118" fill="#4c4431" d="M 276.5,289.5 C 276.833,290.833 277.167,290.833 277.5,289.5C 277.833,289.5 278.167,289.5 278.5,289.5C 277.36,291.78 276.193,294.114 275,296.5C 274.725,293.942 275.225,291.608 276.5,289.5 Z"/></g>
<g><path style="opacity:0.69" fill="#544931" d="M 293.5,283.5 C 291.955,286.846 292.622,289.512 295.5,291.5C 294.488,292.872 293.488,294.205 292.5,295.5C 291.833,293.833 291.167,292.167 290.5,290.5C 291.363,291.463 292.03,291.463 292.5,290.5C 290.922,287.75 291.255,285.417 293.5,283.5 Z"/></g>
<g><path style="opacity:0.094" fill="#494032" d="M 160.5,288.5 C 159.92,290.749 158.587,292.415 156.5,293.5C 157.08,291.251 158.413,289.585 160.5,288.5 Z"/></g>
<g><path style="opacity:0.502" fill="#675530" d="M 185.5,283.5 C 183.955,286.846 184.622,289.512 187.5,291.5C 186.878,293.122 185.878,294.455 184.5,295.5C 183.758,293.02 182.758,290.687 181.5,288.5C 182.117,288.611 182.617,288.944 183,289.5C 183.037,287.026 183.87,285.026 185.5,283.5 Z"/></g>
<g><path style="opacity:0.6" fill="#675530" d="M 206.5,290.5 C 206.88,292.698 206.213,294.365 204.5,295.5C 204.402,293.447 205.069,291.78 206.5,290.5 Z"/></g>
<g><path style="opacity:1" fill="#7d652e" d="M 197.5,304.5 C 197.011,307.324 195.344,308.657 192.5,308.5C 193.955,305.692 194.955,302.692 195.5,299.5C 195.241,297.013 194.241,295.013 192.5,293.5C 193.368,291.375 194.368,291.209 195.5,293C 195.816,296.423 196.816,299.59 198.5,302.5C 197.975,303.192 197.308,303.692 196.5,304C 196.728,304.399 197.062,304.565 197.5,304.5 Z"/></g>
<g><path style="opacity:0.286" fill="#5a4d31" d="M 198.5,291.5 C 199.906,291.973 200.573,292.973 200.5,294.5C 199.094,294.027 198.427,293.027 198.5,291.5 Z"/></g>
<g><path style="opacity:0.443" fill="#685630" d="M 251.5,289.5 C 250.5,292.5 248.5,294.5 245.5,295.5C 247.167,293.167 249.167,291.167 251.5,289.5 Z"/></g>
<g><path style="opacity:0.251" fill="#544931" d="M 306.5,291.5 C 307.906,291.973 308.573,292.973 308.5,294.5C 307.094,294.027 306.427,293.027 306.5,291.5 Z"/></g>
<g><path style="opacity:0.49" fill="#76612d" d="M 370.5,287.5 C 371.468,291.999 370.635,296.333 368,300.5C 367.833,299.333 367.667,298.167 367.5,297C 369.209,294.076 370.209,290.909 370.5,287.5 Z"/></g>
<g><path style="opacity:0.467" fill="#594d30" d="M 404.5,290.5 C 405.471,291.962 405.138,293.295 403.5,294.5C 402.33,296.279 400.664,297.279 398.5,297.5C 399.781,294.553 401.781,292.219 404.5,290.5 Z"/></g>
<g><path style="opacity:0.373" fill="#615230" d="M 124.5,292.5 C 124.573,294.027 123.906,295.027 122.5,295.5C 122.5,294.833 122.5,294.167 122.5,293.5C 123.167,293.167 123.833,292.833 124.5,292.5 Z"/></g>
<g><path style="opacity:0.329" fill="#564930" d="M 262.5,288.5 C 262.324,291.727 261.657,294.727 260.5,297.5C 260.215,294.171 260.882,291.171 262.5,288.5 Z"/></g>
<g><path style="opacity:0.322" fill="#66562f" d="M 121.5,295.5 C 121.833,295.5 122.167,295.5 122.5,295.5C 122.315,297.196 121.481,298.529 120,299.5C 119.53,298.423 119.697,297.423 120.5,296.5C 121.167,296.5 121.5,296.167 121.5,295.5 Z"/></g>
<g><path style="opacity:0.722" fill="#685630" d="M 252.5,305.5 C 252.261,303.533 252.594,301.699 253.5,300C 252.423,299.53 251.423,299.697 250.5,300.5C 249.708,299.033 249.708,297.7 250.5,296.5C 255.057,298.561 255.724,301.561 252.5,305.5 Z"/></g>
<g><path style="opacity:0.624" fill="#685630" d="M 102.5,296.5 C 102.073,299.01 101.407,301.343 100.5,303.5C 100.338,301.473 100.505,299.473 101,297.5C 101.383,296.944 101.883,296.611 102.5,296.5 Z"/></g>
<g><path style="opacity:0.008" fill="#4a4132" d="M 361.5,291.5 C 361.267,294.542 360.267,297.208 358.5,299.5C 358.733,296.458 359.733,293.792 361.5,291.5 Z"/></g>
<g><path style="opacity:0.651" fill="#735e2e" d="M 113.5,296.5 C 113.519,298.06 113.852,299.56 114.5,301C 114.317,302.684 113.65,302.85 112.5,301.5C 112.216,299.585 112.549,297.919 113.5,296.5 Z"/></g>
<g><path style="opacity:0.078" fill="#413c32" d="M 164.5,294.5 C 164.721,297.097 165.221,297.097 166,294.5C 166.15,297.421 165.65,300.254 164.5,303C 165.883,304.461 165.549,305.294 163.5,305.5C 164.415,301.653 164.749,297.987 164.5,294.5 Z"/></g>
<g><path style="opacity:0.329" fill="#5d4f30" d="M 183.5,297.5 C 183.573,299.027 182.906,300.027 181.5,300.5C 181.427,298.973 182.094,297.973 183.5,297.5 Z"/></g>
<g><path style="opacity:0.345" fill="#615230" d="M 291.5,297.5 C 291.573,299.027 290.906,300.027 289.5,300.5C 289.427,298.973 290.094,297.973 291.5,297.5 Z"/></g>
<g><path style="opacity:0.271" fill="#5e4f30" d="M 324.5,295.5 C 323.92,297.749 322.587,299.415 320.5,300.5C 321.08,298.251 322.413,296.585 324.5,295.5 Z"/></g>
<g><path style="opacity:0.142" fill="#534930" d="M 211.5,298.5 C 211.678,302.122 211.011,305.456 209.5,308.5C 209.549,304.922 210.215,301.589 211.5,298.5 Z"/></g>
<g><path style="opacity:0.027" fill="#2a2d33" d="M 309.5,297.5 C 310.167,298.5 310.833,299.5 311.5,300.5C 311.5,302.167 311.5,303.833 311.5,305.5C 310.833,304.167 310.167,302.833 309.5,301.5C 309.5,300.167 309.5,298.833 309.5,297.5 Z"/></g>
<g><path style="opacity:0.965" fill="#7e662e" d="M 326.5,306.5 C 326.5,305.167 326.5,303.833 326.5,302.5C 327.338,302.158 327.672,301.492 327.5,300.5C 328.833,300.167 328.833,299.833 327.5,299.5C 327.783,298.711 328.283,298.044 329,297.5C 329.314,300.858 328.48,303.858 326.5,306.5 Z"/></g>
<g><path style="opacity:0.294" fill="#4d4431" d="M 131.5,298.5 C 131.833,298.5 132.167,298.5 132.5,298.5C 132.08,300.674 132.08,302.674 132.5,304.5C 132.043,305.298 131.376,305.631 130.5,305.5C 130.674,303.139 131.007,300.806 131.5,298.5 Z"/></g>
<g><path style="opacity:0.596" fill="#76602e" d="M 318.5,298.5 C 318.5,299.5 318.5,300.5 318.5,301.5C 317.167,301.833 317.167,302.167 318.5,302.5C 318.217,303.289 317.717,303.956 317,304.5C 316.262,302.119 316.762,300.119 318.5,298.5 Z"/></g>
<g><path style="opacity:0.018" fill="#2e2f33" d="M 372.5,301.5 C 372.917,305.817 372.25,309.817 370.5,313.5C 370.717,309.295 371.383,305.295 372.5,301.5 Z"/></g>
<g><path style="opacity:0.012" fill="#3c3832" d="M 401.5,302.5 C 401.573,304.027 400.906,305.027 399.5,305.5C 399.427,303.973 400.094,302.973 401.5,302.5 Z"/></g>
<g><path style="opacity:0.046" fill="#2a2d33" d="M 238.5,307.5 C 238.5,306.833 238.167,306.5 237.5,306.5C 237.5,306.167 237.5,305.833 237.5,305.5C 240.906,304.31 241.239,304.977 238.5,307.5 Z"/></g>
<g><path style="opacity:1" fill="#95752d" d="M 242.5,298.5 C 240.42,300.573 238.754,302.907 237.5,305.5C 237.5,305.833 237.5,306.167 237.5,306.5C 237.5,306.833 237.5,307.167 237.5,307.5C 236.508,307.328 235.842,307.662 235.5,308.5C 235.167,308.5 234.833,308.5 234.5,308.5C 233.368,307.646 232.035,307.646 230.5,308.5C 234.202,304.797 238.202,301.463 242.5,298.5 Z"/></g>
<g><path style="opacity:0.678" fill="#715c2f" d="M 382.5,303.5 C 381.92,305.749 380.587,307.415 378.5,308.5C 379.08,306.251 380.413,304.585 382.5,303.5 Z"/></g>
<g><path style="opacity:0.773" fill="#735e2d" d="M 93.5,300.5 C 94.9862,303.9 94.8195,307.233 93,310.5C 92.7216,309.584 92.2216,308.918 91.5,308.5C 91.5651,305.572 92.2318,302.905 93.5,300.5 Z"/></g>
<g><path style="opacity:0.329" fill="#77612d" d="M 148.5,289.5 C 148.33,290.822 148.663,291.989 149.5,293C 147.342,293.959 147.009,295.459 148.5,297.5C 147.628,301.333 146.628,304.999 145.5,308.5C 144.167,308.833 144.167,309.167 145.5,309.5C 144.738,311.262 143.404,312.262 141.5,312.5C 143.992,304.861 146.325,297.194 148.5,289.5 Z"/></g>
<g><path style="opacity:0.396" fill="#564a30" d="M 303.5,297.5 C 304.245,299.671 304.412,302.005 304,304.5C 304.419,303.328 305.085,302.328 306,301.5C 305.968,303.598 305.301,305.598 304,307.5C 302.989,308.337 301.822,308.67 300.5,308.5C 302.128,305.039 303.128,301.372 303.5,297.5 Z"/></g>
<g><path style="opacity:0.271" fill="#524830" d="M 349.5,304.5 C 349.573,306.027 348.906,307.027 347.5,307.5C 347.427,305.973 348.094,304.973 349.5,304.5 Z"/></g>
<g><path style="opacity:0.471" fill="#5c4e30" d="M 364.5,303.5 C 364.5,308.167 364.5,312.833 364.5,317.5C 363.579,314.86 362.912,312.027 362.5,309C 362.701,306.889 363.367,305.055 364.5,303.5 Z"/></g>
<g><path style="opacity:0.337" fill="#5a4d2f" d="M 385.5,299.5 C 385.756,303.35 385.756,307.35 385.5,311.5C 384.833,310.5 384.167,309.5 383.5,308.5C 384.573,306.347 384.573,304.347 383.5,302.5C 383.932,301.29 384.599,300.29 385.5,299.5 Z"/></g>
<g><path style="opacity:0.778" fill="#7a622f" d="M 287.5,304.5 C 287.36,306.124 288.027,307.29 289.5,308C 288.473,308.513 287.473,309.013 286.5,309.5C 286.062,309.565 285.728,309.399 285.5,309C 286.099,307.378 286.766,305.878 287.5,304.5 Z"/></g>
<g><path style="opacity:0.537" fill="#5c4d30" d="M 252.5,305.5 C 252.116,310.01 251.449,314.343 250.5,318.5C 250.062,318.565 249.728,318.399 249.5,318C 250.03,313.628 251.03,309.462 252.5,305.5 Z"/></g>
<g><path style="opacity:0.098" fill="#423d32" d="M 312.5,307.5 C 314.435,308.15 316.435,308.483 318.5,308.5C 317.903,309.139 317.07,309.472 316,309.5C 314.301,309.613 313.134,308.947 312.5,307.5 Z"/></g>
<g><path style="opacity:0.255" fill="#4c4331" d="M 398.5,306.5 C 398.34,308.153 397.674,309.486 396.5,310.5C 396.229,308.62 396.896,307.287 398.5,306.5 Z"/></g>
<g><path style="opacity:0.098" fill="#3b3932" d="M 234.5,308.5 C 234.833,308.5 235.167,308.5 235.5,308.5C 235.833,308.5 236.167,308.5 236.5,308.5C 235.739,309.391 234.739,310.058 233.5,310.5C 232.6,309.643 232.934,308.976 234.5,308.5 Z"/></g>
<g><path style="opacity:0.035" fill="#3d3833" d="M 383.5,308.5 C 383.573,310.027 382.906,311.027 381.5,311.5C 381.427,309.973 382.094,308.973 383.5,308.5 Z"/></g>
<g><path style="opacity:0.341" fill="#4e4531" d="M 192.5,308.5 C 192.167,310.833 190.833,312.167 188.5,312.5C 189.5,310.833 190.833,309.5 192.5,308.5 Z"/></g>
<g><path style="opacity:0.341" fill="#504631" d="M 300.5,308.5 C 300.167,310.833 298.833,312.167 296.5,312.5C 297.5,310.833 298.833,309.5 300.5,308.5 Z"/></g>
<g><path style="opacity:0.443" fill="#5a4c30" d="M 346.5,309.5 C 346.573,311.027 345.906,312.027 344.5,312.5C 344.427,310.973 345.094,309.973 346.5,309.5 Z"/></g>
<g><path style="opacity:0.341" fill="#65552e" d="M 112.5,301.5 C 113.573,303.653 113.573,305.653 112.5,307.5C 111.167,308.167 111.167,308.833 112.5,309.5C 111.833,311.167 111.167,312.833 110.5,314.5C 109.876,314.083 109.543,313.416 109.5,312.5C 109.977,308.564 110.977,304.897 112.5,301.5 Z"/></g>
<g><path style="opacity:0.408" fill="#5f4f31" d="M 378.5,308.5 C 377.92,310.749 376.587,312.415 374.5,313.5C 375.08,311.251 376.413,309.585 378.5,308.5 Z"/></g>
<g><path style="opacity:0.525" fill="#78622c" d="M 411.5,298.5 C 411.33,299.822 411.663,300.989 412.5,302C 411.692,302.308 411.025,302.808 410.5,303.5C 411.242,305.35 412.242,306.016 413.5,305.5C 412.833,308.167 412.167,310.833 411.5,313.5C 412.983,317.635 412.816,321.635 411,325.5C 410.667,322.5 410.333,319.5 410,316.5C 409.648,318.247 409.148,319.914 408.5,321.5C 406.989,313.557 407.989,305.89 411.5,298.5 Z"/></g>
<g><path style="opacity:0.341" fill="#4e4431" d="M 130.5,305.5 C 131.105,309.018 131.105,312.685 130.5,316.5C 129.167,312.833 129.167,309.167 130.5,305.5 Z"/></g>
<g><path style="opacity:0.525" fill="#675530" d="M 141.5,312.5 C 140.738,314.262 139.404,315.262 137.5,315.5C 138.262,313.738 139.596,312.738 141.5,312.5 Z"/></g>
<g><path style="opacity:0.443" fill="#5e4f30" d="M 174.5,312.5 C 173.738,314.262 172.404,315.262 170.5,315.5C 171.262,313.738 172.596,312.738 174.5,312.5 Z"/></g>
<g><path style="opacity:0.592" fill="#635330" d="M 188.5,312.5 C 188.027,313.906 187.027,314.573 185.5,314.5C 185.973,313.094 186.973,312.427 188.5,312.5 Z"/></g>
<g><path style="opacity:0.341" fill="#594d2f" d="M 292.5,310.5 C 292.285,312.179 292.952,313.179 294.5,313.5C 293.791,314.404 292.791,314.737 291.5,314.5C 291.232,312.901 291.566,311.568 292.5,310.5 Z"/></g>
<g><path style="opacity:0.663" fill="#5a4c31" d="M 388.5,313.5 C 390.167,313.5 391.833,313.5 393.5,313.5C 391.714,315.922 390.048,315.922 388.5,313.5 Z"/></g>
<g><path style="opacity:0.004" fill="#423c32" d="M 196.5,312.5 C 196.5,314.5 195.5,315.5 193.5,315.5C 194.167,314.167 195.167,313.167 196.5,312.5 Z"/></g>
<g><path style="opacity:0.008" fill="#3f3a32" d="M 304.5,312.5 C 304.5,314.5 303.5,315.5 301.5,315.5C 302.167,314.167 303.167,313.167 304.5,312.5 Z"/></g>
<g><path style="opacity:0.05" fill="#3b3732" d="M 370.5,314.5 C 371.5,314.5 372.5,314.5 373.5,314.5C 372.26,316.985 371.26,316.985 370.5,314.5 Z"/></g>
<g><path style="opacity:0.478" fill="#635230" d="M 110.5,314.5 C 112.435,315.15 114.435,315.483 116.5,315.5C 114.348,317.812 112.348,317.478 110.5,314.5 Z"/></g>
<g><path style="opacity:0.537" fill="#605030" d="M 144.5,316.5 C 145.919,315.549 147.585,315.216 149.5,315.5C 148.144,317.538 146.477,317.872 144.5,316.5 Z"/></g>
<g><path style="opacity:0.02" fill="#453e32" d="M 203.5,312.5 C 204.434,313.568 204.768,314.901 204.5,316.5C 203.751,315.469 203.085,314.302 202.5,313C 202.728,312.601 203.062,312.435 203.5,312.5 Z"/></g>
<g><path style="opacity:0.106" fill="#4b4331" d="M 366.5,304.5 C 367.222,304.918 367.722,305.584 368,306.5C 368.667,310.167 368.667,313.833 368,317.5C 366.569,313.365 366.069,309.032 366.5,304.5 Z"/></g>
<g><path style="opacity:0.012" fill="#443e31" d="M 130.5,316.5 C 131.5,316.833 132.167,317.5 132.5,318.5C 131.167,318.5 130.5,317.833 130.5,316.5 Z"/></g>
<g><path style="opacity:0.041" fill="#323133" d="M 181.5,316.5 C 184.096,317.265 186.763,317.599 189.5,317.5C 188.551,318.152 187.385,318.486 186,318.5C 183.992,318.693 182.492,318.026 181.5,316.5 Z"/></g>
<g><path style="opacity:0.812" fill="#625132" d="M 265.5,317.5 C 267.5,317.5 269.5,317.5 271.5,317.5C 269.594,319.994 267.594,319.994 265.5,317.5 Z"/></g>
<g><path style="opacity:0.31" fill="#5f5030" d="M 341.5,316.5 C 341.573,318.027 340.906,319.027 339.5,319.5C 339.427,317.973 340.094,316.973 341.5,316.5 Z"/></g>
<g><path style="opacity:0.104" fill="#4a4331" d="M 101.5,320.5 C 102.708,319.218 104.042,319.218 105.5,320.5C 105.376,321.107 105.043,321.44 104.5,321.5C 103.791,320.596 102.791,320.263 101.5,320.5 Z"/></g>
<g><path style="opacity:0.009" fill="#453e32" d="M 325.5,314.5 C 325.552,318.198 325.886,321.865 326.5,325.5C 325.003,323.71 324.336,321.544 324.5,319C 324.508,317.293 324.842,315.793 325.5,314.5 Z"/></g>
<g><path style="opacity:0.004" fill="#3f3a32" d="M 343.5,321.5 C 343.573,323.027 342.906,324.027 341.5,324.5C 341.427,322.973 342.094,321.973 343.5,321.5 Z"/></g>
<g><path style="opacity:0.02" fill="#363433" d="M 331.5,321.5 C 332.467,322.806 333.801,323.473 335.5,323.5C 334.432,324.434 333.099,324.768 331.5,324.5C 331.5,323.5 331.5,322.5 331.5,321.5 Z"/></g>
<g><path style="opacity:0.58" fill="#5b4d31" d="M 408.5,322.5 C 409.451,323.919 409.784,325.585 409.5,327.5C 407.627,326.104 407.294,324.437 408.5,322.5 Z"/></g>
<g><path style="opacity:0.788" fill="#7e662e" d="M 87.5,324.5 C 85.4855,325.924 83.1522,326.59 80.5,326.5C 82.5145,325.076 84.8478,324.41 87.5,324.5 Z"/></g>
<g><path style="opacity:0.71" fill="#77602f" d="M 256.5,324.5 C 256.634,330.643 256.967,336.81 257.5,343C 257.337,346.197 256.004,347.031 253.5,345.5C 255.151,338.726 256.151,331.726 256.5,324.5 Z"/></g>
<g><path style="opacity:0.931" fill="#bcbdbf" d="M 111.5,371.5 C 113.144,371.286 114.644,371.62 116,372.5C 117.502,382.756 119.002,382.423 120.5,371.5C 122.144,371.286 123.644,371.62 125,372.5C 126.878,381.527 128.378,381.194 129.5,371.5C 130.833,371.5 132.167,371.5 133.5,371.5C 132.343,376.462 131.343,381.462 130.5,386.5C 125.221,387.738 122.721,385.405 123,379.5C 122,381.833 121,384.167 120,386.5C 118.951,387.517 117.784,387.684 116.5,387C 114.141,382.068 112.475,376.902 111.5,371.5 Z"/></g>
<g><path style="opacity:0.67" fill="#8a8c92" d="M 144.5,371.5 C 142.833,371.5 141.167,371.5 139.5,371.5C 139.5,376.167 139.5,380.833 139.5,385.5C 142.388,386.01 144.721,385.344 146.5,383.5C 147.797,384.849 147.63,386.182 146,387.5C 143.619,386.565 141.119,386.232 138.5,386.5C 137.453,381.455 137.287,376.455 138,371.5C 140.274,370.189 142.44,370.189 144.5,371.5 Z"/></g>
<g><path style="opacity:0.942" fill="#e4e4e5" d="M 144.5,371.5 C 145.167,371.5 145.833,371.5 146.5,371.5C 145.448,373.256 143.781,373.923 141.5,373.5C 141.5,374.833 141.5,376.167 141.5,377.5C 142.5,377.5 143.5,377.5 144.5,377.5C 145.167,377.5 145.833,377.5 146.5,377.5C 146.5,378.5 146.5,379.5 146.5,380.5C 144.833,380.5 143.167,380.5 141.5,380.5C 141.263,381.791 141.596,382.791 142.5,383.5C 143.833,383.5 145.167,383.5 146.5,383.5C 144.721,385.344 142.388,386.01 139.5,385.5C 139.5,380.833 139.5,376.167 139.5,371.5C 141.167,371.5 142.833,371.5 144.5,371.5 Z"/></g>
<g><path style="opacity:0.938" fill="#c1c2c4" d="M 174.5,373.5 C 174.5,374.167 174.5,374.833 174.5,375.5C 174.167,375.5 173.833,375.5 173.5,375.5C 171.565,374.85 169.565,374.517 167.5,374.5C 164.746,376.053 163.913,378.386 165,381.5C 166.11,383.037 167.61,383.703 169.5,383.5C 170.167,383.5 170.5,383.167 170.5,382.5C 170.833,382.5 171.167,382.5 171.5,382.5C 172.043,382.44 172.376,382.107 172.5,381.5C 171.167,380.833 169.833,380.167 168.5,379.5C 170.743,378.526 173.076,378.192 175.5,378.5C 175.957,381.024 175.957,383.691 175.5,386.5C 171.655,386.289 167.655,386.122 163.5,386C 160.197,382.205 159.697,378.038 162,373.5C 166.207,369.58 170.374,369.58 174.5,373.5 Z"/></g>
<g><path style="opacity:0.133" fill="#3a3f48" d="M 181.5,371.5 C 181.5,376.5 181.5,381.5 181.5,386.5C 180.78,382.3 180.114,377.967 179.5,373.5C 179.855,372.478 180.522,371.811 181.5,371.5 Z"/></g>
<g><path style="opacity:0.905" fill="#c7c8ca" d="M 181.5,371.5 C 184.518,371.335 187.518,371.502 190.5,372C 193.07,374.915 192.737,377.581 189.5,380C 190.833,382 192.167,384 193.5,386C 191.111,387.663 189.111,387.163 187.5,384.5C 187.672,383.508 187.338,382.842 186.5,382.5C 185.452,380.067 184.786,380.067 184.5,382.5C 184.5,383.833 184.5,385.167 184.5,386.5C 183.5,386.5 182.5,386.5 181.5,386.5C 181.5,381.5 181.5,376.5 181.5,371.5 Z M 184.5,375.5 C 185.849,374.203 187.182,374.37 188.5,376C 187.584,376.374 186.75,376.874 186,377.5C 185.722,376.584 185.222,375.918 184.5,375.5 Z M 186.5,382.5 C 185.833,382.5 185.167,382.5 184.5,382.5C 184.786,380.067 185.452,380.067 186.5,382.5 Z"/></g>
<g><path style="opacity:0.929" fill="#bbbcbe" d="M 202.5,370.5 C 210.662,370.498 213.828,374.498 212,382.5C 211.5,384.333 210.333,385.5 208.5,386C 199.884,387.717 196.051,384.217 197,375.5C 198.107,372.887 199.94,371.22 202.5,370.5 Z M 202.5,374.5 C 207.494,374.329 209.328,376.662 208,381.5C 204.122,384.318 201.622,383.318 200.5,378.5C 200.752,376.927 201.418,375.594 202.5,374.5 Z"/></g>
<g><path style="opacity:0.912" fill="#bebfc1" d="M 229.5,384.5 C 229.204,382.597 228.537,380.93 227.5,379.5C 226.422,381.539 225.422,383.706 224.5,386C 222.866,386.494 221.199,386.66 219.5,386.5C 218.605,381.846 217.271,377.346 215.5,373C 216.905,371.731 218.571,371.231 220.5,371.5C 221.622,381.194 223.122,381.527 225,372.5C 226.356,371.62 227.856,371.286 229.5,371.5C 231.272,381.953 232.606,381.953 233.5,371.5C 235.288,371.215 236.955,371.548 238.5,372.5C 236.866,376.702 235.699,381.035 235,385.5C 232.661,387.078 230.828,386.745 229.5,384.5 Z"/></g>
<g><path style="opacity:0.899" fill="#c9cacc" d="M 259.5,371.5 C 258.9,372.9 257.9,373.9 256.5,374.5C 257.705,378.487 257.705,382.487 256.5,386.5C 255.5,386.5 254.5,386.5 253.5,386.5C 252.167,382.5 252.167,378.5 253.5,374.5C 252.167,374.5 250.833,374.5 249.5,374.5C 249.5,373.5 249.5,372.5 249.5,371.5C 252.993,371.002 256.326,371.002 259.5,371.5 Z"/></g>
<g><path style="opacity:0.927" fill="#b7b8bb" d="M 269.5,370.5 C 277.696,370.529 280.863,374.529 279,382.5C 278.5,384.333 277.333,385.5 275.5,386C 267.381,387.875 263.548,384.708 264,376.5C 265.021,373.65 266.854,371.65 269.5,370.5 Z M 270.5,374.5 C 274.976,374.822 276.476,377.156 275,381.5C 271.407,384.455 269.24,383.621 268.5,379C 268.759,377.213 269.425,375.713 270.5,374.5 Z"/></g>
<g><path style="opacity:0.921" fill="#bebfc1" d="M 293.5,383.5 C 294.478,383.189 295.145,382.522 295.5,381.5C 294.311,380.571 292.978,380.238 291.5,380.5C 291.5,379.833 291.5,379.167 291.5,378.5C 293.833,378.5 296.167,378.5 298.5,378.5C 298.808,380.924 298.474,383.257 297.5,385.5C 296.078,384.223 295.078,384.557 294.5,386.5C 285,386.83 281.833,382.497 285,373.5C 289.907,369.36 294.407,369.694 298.5,374.5C 298.113,375.72 297.28,376.387 296,376.5C 289.815,372.862 287.315,374.529 288.5,381.5C 289.85,382.95 291.516,383.617 293.5,383.5 Z"/></g>
<g><path style="opacity:0.92" fill="#ccccce" d="M 313.5,371.5 C 312.198,373.028 310.531,374.028 308.5,374.5C 308.5,375.5 308.5,376.5 308.5,377.5C 309.833,377.5 311.167,377.5 312.5,377.5C 312.5,378.5 312.5,379.5 312.5,380.5C 310.901,380.232 309.568,380.566 308.5,381.5C 308.328,382.492 308.662,383.158 309.5,383.5C 310.5,383.5 311.5,383.5 312.5,383.5C 314.233,384.008 314.566,384.841 313.5,386C 310.518,386.498 307.518,386.665 304.5,386.5C 304.5,381.5 304.5,376.5 304.5,371.5C 307.5,370.167 310.5,370.167 313.5,371.5 Z"/></g>
<g><path style="opacity:0.902" fill="#c1c2c4" d="M 327.5,371.5 C 327.179,373.048 326.179,373.715 324.5,373.5C 324.5,377.833 324.5,382.167 324.5,386.5C 323.5,386.5 322.5,386.5 321.5,386.5C 320.631,382.363 320.298,378.363 320.5,374.5C 319.5,374.5 318.5,374.5 317.5,374.5C 317.33,373.178 317.663,372.011 318.5,371C 321.592,370.264 324.592,370.431 327.5,371.5 Z"/></g>
<g><path style="opacity:0.902" fill="#bbbcbf" d="M 332.5,371.5 C 334.167,371.5 335.833,371.5 337.5,371.5C 337.643,373.262 337.309,374.929 336.5,376.5C 338.396,377.466 340.396,377.799 342.5,377.5C 342.5,375.5 342.5,373.5 342.5,371.5C 343.833,371.5 345.167,371.5 346.5,371.5C 346.5,376.5 346.5,381.5 346.5,386.5C 345.167,386.5 343.833,386.5 342.5,386.5C 342.5,384.5 342.5,382.5 342.5,380.5C 340.5,380.5 338.5,380.5 336.5,380.5C 336.5,382.5 336.5,384.5 336.5,386.5C 335.167,386.5 333.833,386.5 332.5,386.5C 332.5,381.5 332.5,376.5 332.5,371.5 Z"/></g>
<g><path style="opacity:0.904" fill="#dcdcdd" d="M 360.5,371.5 C 359.448,373.256 357.781,373.923 355.5,373.5C 355.232,375.099 355.566,376.432 356.5,377.5C 358.099,377.232 359.432,377.566 360.5,378.5C 359.448,380.256 357.781,380.923 355.5,380.5C 355.5,381.5 355.5,382.5 355.5,383.5C 356.833,383.5 358.167,383.5 359.5,383.5C 361.048,383.821 361.715,384.821 361.5,386.5C 358.102,386.82 354.768,386.487 351.5,385.5C 352.443,380.9 352.777,376.233 352.5,371.5C 355.167,371.5 357.833,371.5 360.5,371.5 Z"/></g>
<g><path style="opacity:0.929" fill="#c6c7c9" d="M 377.5,377.5 C 374.128,378.799 373.795,380.466 376.5,382.5C 377.338,382.842 377.672,383.508 377.5,384.5C 377.5,385.833 376.833,386.5 375.5,386.5C 374.5,386.167 373.833,385.5 373.5,384.5C 371.122,378.909 370.122,379.243 370.5,385.5C 369.432,386.434 368.099,386.768 366.5,386.5C 366.173,381.456 366.506,376.456 367.5,371.5C 368.086,371.291 368.586,370.957 369,370.5C 371.405,371.274 373.905,371.774 376.5,372C 377.406,373.699 377.739,375.533 377.5,377.5 Z M 370.5,374.5 C 373.957,374.667 374.29,375.667 371.5,377.5C 370.614,376.675 370.281,375.675 370.5,374.5 Z"/></g>
<g><path style="opacity:0.912" fill="#d2d2d3" d="M 386.5,371.5 C 386.5,374.833 386.5,378.167 386.5,381.5C 385.5,381.5 384.5,381.5 383.5,381.5C 383.5,378.167 383.5,374.833 383.5,371.5C 384.5,371.5 385.5,371.5 386.5,371.5 Z"/></g>
<g><path style="opacity:0.585" fill="#808388" d="M 146.5,371.5 C 149.167,372.5 149.167,373.5 146.5,374.5C 145.5,374.5 144.5,374.5 143.5,374.5C 142.957,374.56 142.624,374.893 142.5,375.5C 143.243,376.182 143.909,376.849 144.5,377.5C 143.5,377.5 142.5,377.5 141.5,377.5C 141.5,376.167 141.5,374.833 141.5,373.5C 143.781,373.923 145.448,373.256 146.5,371.5 Z"/></g>
<g><path style="opacity:0.57" fill="#83858a" d="M 259.5,371.5 C 260.478,371.811 261.145,372.478 261.5,373.5C 259.955,374.452 258.288,374.785 256.5,374.5C 257.9,373.9 258.9,372.9 259.5,371.5 Z"/></g>
<g><path style="opacity:0.573" fill="#71747a" d="M 313.5,371.5 C 314.71,373.176 314.21,374.51 312,375.5C 310.989,374.663 309.822,374.33 308.5,374.5C 310.531,374.028 312.198,373.028 313.5,371.5 Z"/></g>
<g><path style="opacity:0.575" fill="#83868b" d="M 360.5,371.5 C 362.233,372.008 362.566,372.841 361.5,374C 359.866,374.494 358.199,374.66 356.5,374.5C 356.5,375.5 356.5,376.5 356.5,377.5C 355.566,376.432 355.232,375.099 355.5,373.5C 357.781,373.923 359.448,373.256 360.5,371.5 Z"/></g>
<g><path style="opacity:0.021" fill="#242a33" d="M 143.5,374.5 C 144.5,374.5 145.5,374.5 146.5,374.5C 146.043,376.557 145.043,376.557 143.5,374.5 Z"/></g>
<g><path style="opacity:0.152" fill="#50545b" d="M 327.5,371.5 C 329.048,371.821 329.715,372.821 329.5,374.5C 328.167,374.5 326.833,374.5 325.5,374.5C 325.817,378.702 325.483,382.702 324.5,386.5C 324.5,382.167 324.5,377.833 324.5,373.5C 326.179,373.715 327.179,373.048 327.5,371.5 Z"/></g>
<g><path style="opacity:0.008" fill="#373b45" d="M 174.5,373.5 C 175.451,374.919 175.784,376.585 175.5,378.5C 173.076,378.192 170.743,378.526 168.5,379.5C 169.833,380.167 171.167,380.833 172.5,381.5C 172.376,382.107 172.043,382.44 171.5,382.5C 171.167,381.167 170.833,381.167 170.5,382.5C 170.5,383.167 170.167,383.5 169.5,383.5C 165.443,379.746 166.443,377.58 172.5,377C 170.685,376.243 169.019,375.41 167.5,374.5C 169.565,374.517 171.565,374.85 173.5,375.5C 173.833,376.833 174.167,376.833 174.5,375.5C 174.5,374.833 174.5,374.167 174.5,373.5 Z"/></g>
<g><path style="opacity:0.354" fill="#6b6e75" d="M 291.5,378.5 C 293.948,377.527 296.615,377.194 299.5,377.5C 299.5,380.5 299.5,383.5 299.5,386.5C 297.833,386.5 296.167,386.5 294.5,386.5C 295.078,384.557 296.078,384.223 297.5,385.5C 298.474,383.257 298.808,380.924 298.5,378.5C 296.167,378.5 293.833,378.5 291.5,378.5 Z"/></g>
<g><path style="opacity:0.041" fill="#282d37" d="M 360.5,378.5 C 361.289,378.783 361.956,379.283 362.5,380C 361.29,381.039 360.29,382.206 359.5,383.5C 358.167,383.5 356.833,383.5 355.5,383.5C 355.5,382.5 355.5,381.5 355.5,380.5C 357.781,380.923 359.448,380.256 360.5,378.5 Z"/></g>
<g><path style="opacity:0.022" fill="#363a44" d="M 377.5,377.5 C 376.962,379.117 376.629,380.784 376.5,382.5C 373.795,380.466 374.128,378.799 377.5,377.5 Z"/></g>
<g><path style="opacity:0.031" fill="#383d46" d="M 386.5,371.5 C 387.791,375.399 387.791,379.399 386.5,383.5C 385.833,383.5 385.167,383.5 384.5,383.5C 384.167,382.833 383.833,382.167 383.5,381.5C 384.5,381.5 385.5,381.5 386.5,381.5C 386.5,378.167 386.5,374.833 386.5,371.5 Z"/></g>
<g><path style="opacity:0.046" fill="#31363f" d="M 146.5,377.5 C 148.341,381.469 147.175,382.803 143,381.5C 142.536,382.094 142.369,382.761 142.5,383.5C 141.596,382.791 141.263,381.791 141.5,380.5C 143.167,380.5 144.833,380.5 146.5,380.5C 146.5,379.5 146.5,378.5 146.5,377.5 Z"/></g>
<g><path style="opacity:0.275" fill="#484c55" d="M 291.5,380.5 C 292.978,380.238 294.311,380.571 295.5,381.5C 295.145,382.522 294.478,383.189 293.5,383.5C 293.119,382.069 292.119,381.236 290.5,381C 290.728,380.601 291.062,380.435 291.5,380.5 Z"/></g>
<g><path style="opacity:0.037" fill="#30353e" d="M 312.5,377.5 C 313.573,379.347 313.573,381.347 312.5,383.5C 311.5,383.5 310.5,383.5 309.5,383.5C 309.672,382.508 309.338,381.842 308.5,381.5C 309.568,380.566 310.901,380.232 312.5,380.5C 312.5,379.5 312.5,378.5 312.5,377.5 Z"/></g>
<g><path style="opacity:0.021" fill="#2c303a" d="M 373.5,384.5 C 372.883,384.389 372.383,384.056 372,383.5C 371.722,384.416 371.222,385.082 370.5,385.5C 370.122,379.243 371.122,378.909 373.5,384.5 Z"/></g>
<g><path style="opacity:0.01" fill="#3d424b" d="M 227.5,379.5 C 228.537,380.93 229.204,382.597 229.5,384.5C 227.787,383.365 227.12,381.698 227.5,379.5 Z"/></g>
<g><path style="opacity:0.02" fill="#292e38" d="M 184.5,382.5 C 185.167,382.5 185.833,382.5 186.5,382.5C 187.338,382.842 187.672,383.508 187.5,384.5C 186.222,384.782 185.222,385.449 184.5,386.5C 184.5,385.167 184.5,383.833 184.5,382.5 Z"/></g>
<g><path style="opacity:0.929" fill="#a6a8ab" d="M 384.5,383.5 C 385.167,383.5 385.833,383.5 386.5,383.5C 387.867,385.093 387.534,386.426 385.5,387.5C 383.466,386.426 383.133,385.093 384.5,383.5 Z"/></g>
<g><path style="opacity:0.022" fill="#3d414a" d="M 377.5,384.5 C 380.151,385.725 379.984,386.725 377,387.5C 376.235,387.43 375.735,387.097 375.5,386.5C 376.833,386.5 377.5,385.833 377.5,384.5 Z"/></g>
</svg>
